<?xml version="1.0" standalone="no"?>
<!DOCTYPE svg PUBLIC "-//W3C//DTD SVG 20010904//EN"
 "http://www.w3.org/TR/2001/REC-SVG-20010904/DTD/svg10.dtd">
<svg version="1.0" xmlns="http://www.w3.org/2000/svg"
 width="211.000000pt" height="211.000000pt" viewBox="0 0 211.000000 211.000000"
 preserveAspectRatio="xMidYMid meet">
<metadata>
Created by potrace 1.10, written by Peter Selinger 2001-2011
</metadata>
<g transform="translate(0.000000,211.000000) scale(0.100000,-0.100000)"
fill="#000000" stroke="none">
<path d="M1073 1948 c-11 -14 -23 -125 -16 -145 3 -7 15 -13 28 -13 26 0 32
19 37 115 3 44 1 50 -18 53 -11 2 -25 -3 -31 -10z"/>
<path d="M881 1877 c-9 -11 -7 -35 9 -103 11 -49 25 -99 30 -111 11 -25 47
-31 56 -9 3 7 -7 62 -23 122 -28 110 -45 133 -72 101z"/>
<path d="M675 1854 c-17 -17 -13 -28 37 -102 22 -32 35 -42 51 -40 34 5 31 32
-8 92 -42 62 -58 72 -80 50z"/>
<path d="M1248 1837 c-7 -8 -33 -55 -57 -105 -38 -76 -42 -93 -32 -106 25 -30
41 -15 91 84 54 108 58 125 34 134 -21 8 -21 8 -36 -7z"/>
<path d="M1484 1754 c-29 -10 -112 -88 -345 -320 l-307 -307 -10 50 c-27 123
-83 225 -145 264 -61 38 -152 8 -178 -59 -5 -13 -3 -59 6 -120 19 -123 19
-241 0 -362 -49 -315 -50 -327 -38 -395 29 -168 153 -308 323 -365 54 -19 80
-21 158 -17 87 4 100 8 190 52 93 46 106 57 305 254 115 113 215 218 223 233
29 55 11 125 -42 167 -15 12 -36 21 -46 21 -15 0 -18 4 -12 18 29 67 3 144
-62 178 -37 19 -40 22 -31 48 14 43 -1 96 -38 133 -18 18 -40 33 -49 33 -9 0
-16 2 -16 5 0 2 63 66 139 142 161 160 177 189 147 267 -27 71 -99 105 -172
80z m93 -69 c26 -19 37 -59 22 -88 -6 -12 -141 -152 -299 -312 -191 -192 -291
-299 -296 -318 -18 -76 35 -162 108 -174 25 -4 38 -11 38 -21 0 -31 40 -98 69
-115 16 -9 43 -17 60 -17 28 0 31 -3 31 -31 0 -44 28 -86 72 -108 l38 -19 -96
-91 c-158 -149 -274 -211 -399 -211 -116 0 -244 63 -313 153 -86 113 -103 188
-77 352 39 253 45 305 45 397 0 53 -5 132 -11 175 -15 99 -14 115 7 130 27 20
50 16 87 -17 45 -39 82 -124 103 -235 16 -85 16 -106 1 -275 -2 -20 6 -28 48
-48 114 -54 167 -112 181 -199 5 -33 1 -53 -19 -96 -14 -31 -35 -60 -46 -66
-23 -13 -28 -40 -9 -59 28 -28 107 59 129 143 14 51 6 123 -20 172 -24 49 -97
117 -155 144 l-44 22 5 86 5 86 327 328 c284 284 331 327 357 327 16 0 39 -7
51 -15z m-186 -504 c16 -16 29 -40 29 -52 0 -27 -233 -267 -268 -276 -51 -13
-101 38 -88 90 5 22 174 201 235 248 33 26 58 24 92 -10z m104 -206 c44 -43
35 -68 -67 -172 -94 -95 -118 -110 -163 -99 -30 8 -58 57 -49 90 3 13 47 65
98 115 105 102 135 113 181 66z m96 -204 c33 -33 35 -50 15 -89 -20 -37 -105
-119 -136 -130 -31 -12 -84 7 -94 33 -18 47 -7 71 68 143 46 45 82 72 96 72
12 0 35 -13 51 -29z"/>
<path d="M564 1665 c-8 -21 -1 -28 91 -95 86 -62 118 -71 123 -35 2 15 -18 36
-83 83 -86 62 -121 75 -131 47z"/>
</g>
</svg>
